# AST/ASF file generated using VICON BodyLanguage
# -----------------------------------------------
:version 1.10
:name VICON
:units
  mass 1.0
  length 0.45
  angle deg
:documentation
   .ast/.asf automatically generated from VICON data using
   VICON BodyBuilder and BodyLanguage model FoxedUp or BRILLIANT.MOD
:root
   order TX TY TZ RX RY RZ
   axis XYZ
   position 0 0 0  
   orientation 0 0 0 
:bonedata
  begin
     id 1 
     name lhipjoint
     direction 0.707368 -0.647095 0.284426 
     length 2.60678 
     axis 0 0 0  XYZ
  end
  begin
     id 2 
     name lfemur
     direction 0.34202 -0.939693 0  
     length 6.63812  
     axis 0 0 20  XYZ
    dof rx ry rz
    limits (-160.0 20.0)
           (-70.0 70.0)
           (-60.0 70.0)
  end
  begin
     id 3 
     name ltibia
     direction 0.34202 -0.939693 0   
     length 7.51178   
     axis 0 0 20   XYZ
    dof rx
    limits (-10.0 170.0)
  end
  begin
     id 4 
     name lfoot
     direction 0.121251 -0.333133 0.935051   
     length 1.83716   
     axis -90 7.62852e-016 20   XYZ
    dof rx rz
    limits (-45.0 90.0)
           (-70.0 20.0)
  end
  begin
     id 5 
     name ltoes
     direction 1.53611e-011 -4.21962e-011 1   
     length 0.916133   
     axis -90 7.62852e-016 20   XYZ
    dof rx
    limits (-90.0 20.0)
  end
  begin
     id 6 
     name rhipjoint
     direction -0.692419 -0.660507 0.290321   
     length 2.55385  
     axis 0 0 0  XYZ 
  end
  begin
     id 7 
     name rfemur
     direction -0.34202 -0.939693 0   
     length 7.29079   
     axis 0 0 -20   XYZ
    dof rx ry rz
    limits (-160.0 20.0)
           (-70.0 70.0)
           (-70.0 60.0)
  end
  begin
     id 8 
     name rtibia
     direction -0.34202 -0.939693 0   
     length 7.47143   
     axis 0 0 -20   XYZ
    dof rx
    limits (-10.0 170.0)
 end
 begin
     id 9 
     name rfoot
     direction -0.119907 -0.329441 0.936532   
     length 1.79439  
     axis -90 -7.62852e-016 -20   XYZ
    dof rx rz
    limits (-45.0 90.0)
           (-20.0 70.0)
  end
  begin
     id 10 
     name rtoes
     direction -1.53571e-011 -4.21961e-011 1   
     length 0.896039   
     axis -90 -7.62852e-016 -20   XYZ
    dof rx
    limits (-90.0 20.0)
  end
  begin
     id 11 
     name lowerback
     direction 0.0367721 0.992912 -0.113016   
     length 1.73542   
     axis 0 0 0   XYZ
    dof rx ry rz
    limits (-20.0 45.0)
           (-30.0 30.0)
           (-30.0 30.0)
  end
  begin
     id 12 
     name upperback
     direction -0.000314626 0.990678 0.136227   
     length 1.7514   
     axis 0 0 0   XYZ
    dof rx ry rz
    limits (-20.0 45.0)
           (-30.0 30.0)
           (-30.0 30.0)
  end
  begin
     id 13 
     name thorax
     direction -0.0226159 0.981151 0.191917   
     length 1.71471   
     axis 0 0 0   XYZ
    dof rx ry rz
    limits (-20.0 45.0)
           (-30.0 30.0)
           (-30.0 30.0)
  end
  begin
     id 14 
     name lowerneck
     direction 0.0219333 0.998071 0.0580739   
     length 1.65882   
     axis 0 0 0   XYZ
    dof rx ry rz
    limits (-20.0 45.0)
           (-30.0 30.0)
           (-30.0 30.0)
  end
  begin
     id 15 
     name upperneck
     direction 0.0384529 0.980058 -0.194957   
     length 1.6612   
     axis 0 0 0   XYZ
    dof rx ry rz
    limits (-20.0 45.0)
           (-30.0 30.0)
           (-30.0 30.0)
  end
  begin
     id 16
     name head
     direction 0.00592123 0.997421 -0.0715234  
     length 1.68077  
     axis 0 0 0   XYZ
    dof rx ry rz
    limits (-20.0 45.0)
           (-30.0 30.0)
           (-30.0 30.0)
  end
  begin
     id 17 
     name lclavicle
     direction 0.904803 0.417826 0.0821728  
     length 3.42227  
     axis 0 0 0   XYZ
    dof ry rz
    limits (-20.0 10.0)
           (0.0 20.0)
  end
  begin
     id 18 
     name lhumerus
     direction 1 -4.48965e-011 -2.68786e-027   
     length 5.11878   
     axis -180 -30 -90   XYZ
    dof rx ry rz
    limits (-60.0 90.0)
           (-90.0 90.0)
           (-90.0 90.0)
  end
  begin
     id 19
     name lradius
     direction 1 -4.48965e-011 2.61168e-028   
     length 3.59971   
     axis -180 -30 -90   XYZ
    dof rx
    limits (-10.0 170.0)
  end
  begin
     id 20
     name lwrist
     direction 1 -4.48965e-011 1.58672e-027   
     length 1.79985   
     axis -1.65735e-015 90 90   XYZ
    dof ry
    limits (-180.0 0.0)
 end
  begin
     id 21 
     name lhand
     direction 1 -4.48942e-011 3.17344e-027   
     length 0.62877   
     axis -2.02492e-015 90 90   XYZ
    dof rx rz
    limits (-90.0 90.0)
           (-45.0 45.0)
  end
  begin
     id 22 
     name lfingers
     direction 1 -4.49011e-011 6.34687e-027   
     length 0.506931   
     axis -4.04985e-015 90 90   XYZ
    dof rx
    limits (0.0 90.0)
  end
  begin
     id 23
     name lthumb
     direction 0.707107 -6.34982e-011 0.707107   
     length 0.727854   
     axis -90 45 2.85299e-015   XYZ
    dof rx rz
    limits (-45.0 45.0)
           (-45.0 45.0)
  end
  begin
     id 24 
     name rclavicle
     direction -0.945647 0.32488 0.0143075   
     length 3.52737  
     axis 0 0 0   XYZ 
    dof ry rz
    limits (-10.0 20.0)
           (-20.0 0.0)
  end
  begin
     id 25 
     name rhumerus
     direction -1 -4.48962e-011 1.92182e-027  
     length 5.4902   
     axis -180 30 90   XYZ
    dof rx ry rz
    limits (-90.0 60.0)
           (-90.0 90.0)
           (-90.0 90.0)
  end
  begin
     id 26 
     name rradius
     direction -1 -4.48967e-011 -5.97193e-028   
     length 3.20659   
     axis -180 30 90   XYZ
    dof rx
    limits (-10.0 170.0)
  end
  begin
     id 27 
     name rwrist
     direction -1 -4.48964e-011 1.58672e-027   
     length 1.6033   
     axis -1.65735e-015 -90 -90   XYZ
    dof ry
    limits (-180.0 0.0)
  end
  begin
     id 28
     name rhand
     direction -1 -4.49006e-011 3.17344e-027   
     length 0.691885   
     axis -2.02492e-015 -90 -90   XYZ
    dof rx rz
    limits (-90.0 90.0)
           (-45.0 45.0)
  end
  begin
     id 29
     name rfingers
     direction -1 -4.48908e-011 6.34687e-027   
     length 0.557815   
     axis -4.04985e-015 -90 -90   XYZ
    dof rx
    limits (0.0 90.0)
  end
  begin
     id 30
     name rthumb
     direction -0.707107 -6.34999e-011 0.707107   
     length 0.800915   
     axis -90 -45 -2.85299e-015   XYZ
    dof rx rz
    limits (-45.0 45.0)
           (-45.0 45.0)
  end
:hierarchy
  begin
    root lhipjoint rhipjoint lowerback
    lhipjoint lfemur
    lfemur ltibia
    ltibia lfoot
    lfoot ltoes
    rhipjoint rfemur
    rfemur rtibia
    rtibia rfoot
    rfoot rtoes
    lowerback upperback
    upperback thorax
    thorax lowerneck lclavicle rclavicle
    lowerneck upperneck
    upperneck head
    lclavicle lhumerus
    lhumerus lradius
    lradius lwrist
    lwrist lhand lthumb
    lhand lfingers
    rclavicle rhumerus
    rhumerus rradius
    rradius rwrist
    rwrist rhand rthumb
    rhand rfingers
  end

#!OML:ASF I:\Actors\actors\Patient Classification 1\Patient 1\Session 1\Subject1.ASF
:FULLY-SPECIFIED
:DEGREES
91
root -0.35421 17.4862 7.65125 8.01897 -5.3137 -7.4904
lowerback -0.154354 0.663712 4.3818
upperback -9.71485 1.23886 1.45292
thorax -10.1736 0.30118 -0.998591
lowerneck -5.47758 -9.77362 -9.99243
upperneck 23.8849 -15.2544 11.0528
head 10.118 -7.04229 3.79021
rclavicle -1.44119e-014 9.54166e-015
rhumerus -46.2336 -15.3853 -77.8516
rradius 24.088
rwrist 40.3194
rhand 5.17955 -32.4922
rfingers 7.12502
rthumb 30.5412 -59.9801
lclavicle -1.44119e-014 9.54166e-015
lhumerus -43.374 12.6636 80.0906
lradius 21.1649
lwrist -26.5448
lhand -17.6188 -8.5853
lfingers 7.12502
lthumb 8.63824 21.218
rfemur -2.69269 24.6721 24.6532
rtibia 2.22779
rfoot -10.1658 -19.6492
rtoes -0.765205
lfemur 8.52182 -42.0751 -17.9807
ltibia -4.54992
lfoot -26.2361 54.1876
ltoes 19.4293
92
root -0.355046 17.4855 7.65533 7.99138 -5.29312 -7.51922
lowerback -0.117939 0.671562 4.44794
upperback -9.74586 1.25429 1.42467
thorax -10.2289 0.300101 -1.06717
lowerneck -5.4673 -9.80482 -9.95718
upperneck 23.96 -15.2931 10.9658
head 10.1376 -7.06443 3.74929
rclavicle 5.06901e-015 1.55052e-014
rhumerus -46.3173 -15.6197 -77.7192
rradius 23.996
rwrist 40.6714
rhand 5.15423 -32.4562
rfingers 7.12502
rthumb 30.5171 -59.9486
lclavicle 5.06901e-015 1.55052e-014
lhumerus -43.4455 12.2376 80.282
lradius 21.2496
lwrist -26.3269
lhand -17.662 -8.69542
lfingers 7.12502
lthumb 8.59655 21.1096
rfemur -2.62647 24.733 24.7249
rtibia 2.23388
rfoot -10.2153 -19.7313
rtoes -0.761251
lfemur 8.57932 -41.9996 -17.9662
ltibia -4.58301
lfoot -26.214 54.1185
ltoes 19.4507
93
root -0.355542 17.4851 7.6583 7.98272 -5.27565 -7.53194
lowerback -0.0700822 0.712102 4.50521
upperback -9.78909 1.31086 1.34945
thorax -10.3017 0.316906 -1.18474
lowerneck -5.4617 -9.88797 -9.80973
upperneck 24.0271 -15.4025 10.8081
head 10.148 -7.11612 3.65533
rclavicle 2.98177e-015 7.95139e-016
rhumerus -46.4434 -16.0955 -77.4871
rradius 23.9058
rwrist 41.1266
rhand 5.08875 -32.437
rfingers 7.12502
rthumb 30.4546 -59.941
lclavicle 2.98177e-015 7.95139e-016
lhumerus -43.44 11.9282 80.3166
lradius 21.2643
lwrist -26.3143
lhand -17.6743 -8.81714
lfingers 7.12502
lthumb 8.58467 20.9883
rfemur -2.59422 24.7543 24.7582
rtibia 2.22693
rfoot -10.23 -19.7674
rtoes -0.957221
lfemur 8.58207 -41.9174 -17.9338
ltibia -4.59987
lfoot -26.0486 54.056
ltoes 19.311
94
root -0.355893 17.4855 7.66111 7.98747 -5.26793 -7.52108
lowerback -0.0542155 0.792086 4.54814
upperback -9.81978 1.41351 1.22611
thorax -10.3369 0.355861 -1.34949
lowerneck -5.42353 -9.99037 -9.61604
upperneck 23.9981 -15.5545 10.7231
head 10.1245 -7.18001 3.57518
rclavicle 9.93923e-016 2.26615e-014
rhumerus -46.5598 -16.6873 -77.249
rradius 23.8378
rwrist 41.4023
rhand 4.99065 -32.3856
rfingers 7.12502
rthumb 30.3611 -59.9069
lclavicle 9.93923e-016 2.26615e-014
lhumerus -43.3635 11.7155 80.2173
lradius 21.2615
lwrist -26.4595
lhand -17.652 -8.79269
lfingers 7.12502
lthumb 8.60617 21.0119
rfemur -2.57884 24.7822 24.7515
rtibia 2.20527
rfoot -10.204 -19.7941
rtoes -0.99941
lfemur 8.58201 -41.9137 -17.9391
ltibia -4.60597
lfoot -25.9116 54.0736
ltoes 19.1012
95
root -0.355562 17.4863 7.66506 7.99259 -5.239 -7.48741
lowerback -0.0583268 0.838393 4.58305
upperback -9.83488 1.4705 1.12937
thorax -10.3453 0.375269 -1.47719
lowerneck -5.42743 -10.0508 -9.49215
upperneck 23.9444 -15.6448 10.6971
head 10.1036 -7.21453 3.53335
rclavicle 3.08116e-015 1.70955e-014
rhumerus -46.6392 -17.0579 -77.1207
rradius 23.8937
rwrist 41.3717
rhand 4.98391 -32.3334
rfingers 7.12502
rthumb 30.3546 -59.8559
lclavicle 3.08116e-015 1.70955e-014
lhumerus -43.3379 11.6817 80.0574
lradius 21.3652
lwrist -26.5545
lhand -17.6148 -8.70415
lfingers 7.12502
lthumb 8.64203 21.099
rfemur -2.55722 24.7447 24.7147
rtibia 2.1757
rfoot -10.157 -19.8012
rtoes -0.99927
lfemur 8.58653 -41.975 -17.9918
ltibia -4.58679
lfoot -25.9397 54.1032
ltoes 19.1469
96
root -0.35395 17.4875 7.66957 7.98447 -5.20921 -7.43268
lowerback -0.0410643 0.846439 4.59563
upperback -9.84455 1.4792 1.07626
thorax -10.3646 0.375049 -1.54204
lowerneck -5.43415 -10.0655 -9.45322
upperneck 23.8607 -15.6565 10.6866
head 10.0717 -7.21921 3.52127
rclavicle 7.45443e-015 7.15625e-015
rhumerus -46.6941 -17.2306 -77.0541
rradius 24.0207
rwrist 41.167
rhand 5.00787 -32.3073
rfingers 7.12502
rthumb 30.3775 -59.8255
lclavicle 7.45443e-015 7.15625e-015
lhumerus -43.363 11.8248 79.867
lradius 21.5205
lwrist -26.4968
lhand -17.5434 -8.60107
lfingers 7.12502
lthumb 8.71099 21.1992
rfemur -2.51422 24.6988 24.6576
rtibia 2.13835
rfoot -10.1257 -19.7969
rtoes -1.18635
lfemur 8.60941 -42.0017 -18.0846
ltibia -4.57565
lfoot -25.9487 54.1016
ltoes 19.2374
97
root -0.3513 17.4888 7.6746 7.999 -5.20417 -7.39003
lowerback -0.0347472 0.860411 4.61864
upperback -9.87567 1.49827 1.04391
thorax -10.4016 0.379371 -1.59126
lowerneck -5.43137 -10.0604 -9.47138
upperneck 23.8184 -15.6329 10.6574
head 10.0519 -7.21363 3.51728
rclavicle -1.11319e-014 2.78299e-014
rhumerus -46.7827 -17.3468 -76.9636
rradius 24.1304
rwrist 40.9406
rhand 4.96788 -32.2581
rfingers 7.12502
rthumb 30.3393 -59.7834
lclavicle -1.11319e-014 2.78299e-014
lhumerus -43.4309 11.9811 79.6962
lradius 21.6792
lwrist -26.2104
lhand -17.4614 -8.46368
lfingers 7.12502
lthumb 8.79014 21.3333
rfemur -2.49658 24.6891 24.5982
rtibia 2.10635
rfoot -10.152 -19.7792
rtoes -1.25609
lfemur 8.62832 -42.0288 -18.166
ltibia -4.57819
lfoot -25.9841 54.1043
ltoes 19.2971
98
root -0.349993 17.4889 7.68075 8.02962 -5.19401 -7.4286
lowerback -0.0555137 0.860742 4.6965
upperback -9.91797 1.50419 1.05374
thorax -10.4367 0.37457 -1.62426
lowerneck -5.49862 -10.0522 -9.51533
upperneck 23.9168 -15.6164 10.63
head 10.0998 -7.20725 3.51338
rclavicle -7.15625e-015 -3.97569e-016
rhumerus -46.8762 -17.3213 -76.9385
rradius 24.2597
rwrist 40.6251
rhand 4.98131 -32.2348
rfingers 7.12502
rthumb 30.3521 -59.7577
lclavicle -7.15625e-015 -3.97569e-016
lhumerus -43.5489 12.1154 79.5583
lradius 21.8662
lwrist -25.7296
lhand -17.3541 -8.27674
lfingers 7.12502
lthumb 8.89365 21.5158
rfemur -2.48746 24.6818 24.6344
rtibia 2.07946
rfoot -10.1969 -19.7624
rtoes -1.06265
lfemur 8.629 -42.0406 -18.1274
ltibia -4.58339
lfoot -26.0718 54.0848
ltoes 19.4133
99
root -0.350668 17.4889 7.68633 8.047 -5.1885 -7.52557
lowerback -0.0633061 0.856047 4.79966
upperback -9.94664 1.50665 1.08245
thorax -10.4647 0.367173 -1.65099
lowerneck -5.56318 -10.0387 -9.5294
upperneck 23.9862 -15.5936 10.6056
head 10.1336 -7.19596 3.50693
rclavicle 1.26228e-014 1.70955e-014
rhumerus -46.9235 -17.2234 -77.0003
rradius 24.4071
rwrist 40.2759
rhand 5.08807 -32.2693
rfingers 7.12502
rthumb 30.454 -59.7734
lclavicle 1.26228e-014 1.70955e-014
lhumerus -43.6737 12.2141 79.425
lradius 22.0819
lwrist -25.3097
lhand -17.2244 -8.06229
lfingers 7.12502
lthumb 9.01884 21.7249
rfemur -2.45566 24.7162 24.759
rtibia 2.05226
rfoot -10.1966 -19.7907
rtoes -0.86741
lfemur 8.66404 -42.0539 -18.0249
ltibia -4.61705
lfoot -26.2279 54.0878
ltoes 19.5576
100
root -0.350011 17.4887 7.68971 8.08149 -5.18387 -7.55586
lowerback -0.0652573 0.877788 4.86567
upperback -9.97746 1.53907 1.06071
thorax -10.4956 0.374877 -1.7138
lowerneck -5.62227 -10.0577 -9.49309
upperneck 24.032 -15.621 10.578
head 10.1593 -7.20446 3.48452
rclavicle -2.28602e-015 3.22031e-014
rhumerus -46.9544 -17.1433 -77.0956
rradius 24.5174
rwrist 40.0142
rhand 5.11175 -32.2789
rfingers 7.12502
rthumb 30.4766 -59.7788
lclavicle -2.28602e-015 3.22031e-014
lhumerus -43.7243 12.2725 79.2616
lradius 22.1696
lwrist -25.1647
lhand -17.1962 -8.1338
lfingers 7.12502
lthumb 9.04607 21.6522
rfemur -2.45807 24.7339 24.7851
rtibia 2.0179
rfoot -10.1623 -19.811
rtoes -0.74833
lfemur 8.66349 -42.1208 -17.9969
ltibia -4.62886
lfoot -26.2623 54.1587
ltoes 19.44
101
root -0.348845 17.4879 7.69303 8.12558 -5.15317 -7.53519
lowerback -0.101282 0.899109 4.89635
upperback -10.0013 1.5645 1.01588
thorax -10.4978 0.381842 -1.78045
lowerneck -5.69185 -10.0896 -9.43249
upperneck 24.0935 -15.6653 10.5255
head 10.1902 -7.22012 3.44659
rclavicle -3.77691e-015 -3.97569e-015
rhumerus -46.9571 -17.0653 -77.2006
rradius 24.5754
rwrist 39.8742
rhand 5.09052 -32.2905
rfingers 7.12502
rthumb 30.4563 -59.7941
lclavicle -3.77691e-015 -3.97569e-015
lhumerus -43.7165 12.3011 79.1044
lradius 22.1381
lwrist -25.1833
lhand -17.2111 -8.29179
lfingers 7.12502
lthumb 9.03161 21.4949
rfemur -2.48427 24.7462 24.7441
rtibia 2.00234
rfoot -10.1839 -19.8389
rtoes -0.664844
lfemur 8.60275 -42.1506 -17.9893
ltibia -4.61161
lfoot -26.1462 54.165
ltoes 19.2679
102
root -0.350039 17.4876 7.69738 8.14035 -5.14411 -7.5118
lowerback -0.145069 0.902349 4.86497
upperback -10.0077 1.5633 1.00207
thorax -10.4787 0.383691 -1.77689
lowerneck -5.70735 -10.0719 -9.39601
upperneck 24.117 -15.6435 10.5136
head 10.1948 -7.20683 3.43919
rclavicle 6.06293e-015 1.19271e-015
rhumerus -46.9159 -16.9727 -77.286
rradius 24.5715
rwrist 39.8799
rhand 5.0889 -32.2577
rfingers 7.12502
rthumb 30.4548 -59.7616
lclavicle 6.06293e-015 1.19271e-015
lhumerus -43.7329 12.2887 78.9983
lradius 22.1049
lwrist -25.2401
lhand -17.2055 -8.16196
lfingers 7.12502
lthumb 9.03703 21.6245
rfemur -2.47969 24.8418 24.7288
rtibia 2.01131
rfoot -10.2382 -19.9287
rtoes -0.644469
lfemur 8.57468 -42.1136 -17.9854
ltibia -4.60453
lfoot -26.214 54.0928
ltoes 19.4309
103
root -0.351331 17.4875 7.70138 8.14245 -5.17271 -7.46432
lowerback -0.155751 0.906419 4.78402
upperback -10.0179 1.56424 1.00649
thorax -10.4846 0.391259 -1.72706
lowerneck -5.68669 -10.0236 -9.37669
upperneck 24.1019 -15.5726 10.5044
head 10.1742 -7.17452 3.44447
rclavicle 5.56597e-015 -1.98785e-015
rhumerus -46.86 -16.8803 -77.3145
rradius 24.5124
rwrist 39.9291
rhand 5.02612 -32.1731
rfingers 7.12502
rthumb 30.3949 -59.6881
lclavicle 5.56597e-015 -1.98785e-015
lhumerus -43.8042 12.1839 78.9782
lradius 22.0998
lwrist -25.2557
lhand -17.2274 -7.98805
lfingers 7.12502
lthumb 9.01596 21.7993
rfemur -2.46825 24.9578 24.6877
rtibia 2.0101
rfoot -10.2257 -20.0324
rtoes -0.681788
lfemur 8.55772 -42.0438 -18.0204
ltibia -4.5901
lfoot -26.2235 54.0354
ltoes 19.4269
104
root -0.350875 17.4879 7.70468 8.1543 -5.19173 -7.43796
lowerback -0.141124 0.907489 4.74723
upperback -10.0322 1.5665 1.02332
thorax -10.5105 0.395702 -1.6891
lowerneck -5.72318 -9.98727 -9.33243
upperneck 24.0909 -15.5055 10.4448
head 10.1598 -7.1439 3.42445
rclavicle 1.799e-014 -1.59028e-014
rhumerus -46.7974 -16.7566 -77.3416
rradius 24.4766
rwrist 39.8793
rhand 5.06207 -32.2558
rfingers 7.12502
rthumb 30.4292 -59.7645
lclavicle 1.799e-014 -1.59028e-014
lhumerus -43.8915 12.092 78.9827
lradius 22.1029
lwrist -25.2682
lhand -17.2071 -7.93795
lfingers 7.12502
lthumb 9.03554 21.8485
rfemur -2.47835 25.0148 24.6574
rtibia 2.01499
rfoot -10.1916 -20.0976
rtoes -0.867025
lfemur 8.54422 -41.999 -18.0415
ltibia -4.58907
lfoot -26.122 54.0138
ltoes 19.2973
105
root -0.350188 17.4891 7.7072 8.16166 -5.19062 -7.43793
lowerback -0.107009 0.903665 4.7425
upperback -10.0477 1.56548 1.04199
thorax -10.5495 0.395481 -1.66708
lowerneck -5.78442 -9.95925 -9.29223
upperneck 24.0981 -15.4574 10.4093
head 10.1617 -7.11866 3.40944
rclavicle -5.96354e-016 -2.38542e-015
rhumerus -46.7656 -16.7105 -77.3269
rradius 24.4656
rwrist 39.8817
rhand 5.21454 -32.443
rfingers 7.12502
rthumb 30.5746 -59.9247
lclavicle -5.96354e-016 -2.38542e-015
lhumerus -43.9281 12.2449 78.8224
lradius 21.9656
lwrist -25.5941
lhand -17.1849 -8.03349
lfingers 7.12502
lthumb 9.05693 21.7521
rfemur -2.47517 25.0645 24.6643
rtibia 2.02897
rfoot -10.2354 -20.135
rtoes -0.913288
lfemur 8.57861 -42.0261 -18.0643
ltibia -4.62056
lfoot -26.2384 54.0474
ltoes 19.4389
